<?xml version="1.0" encoding="UTF-8"?>
<svg id="Layer_2" data-name="Layer 2" xmlns="http://www.w3.org/2000/svg" viewBox="0 0 502.07 364.74">
  <defs>
    <style>
      .cls-1, .cls-2 {
      fill: #4d3c36;
      stroke-width: 0px;
      }

      .cls-2 {
      opacity: .1;
      }
    </style>
  </defs>
  <g id="Layer_4" data-name="Layer 4">
    <path class="cls-2"
      d="M241.65,358.36c190.74-29.22,414.52-286.93,112.71-291.75-84.22-1.34-192.61,51.03-291.94,129.26-147.56,116.22-11.51,191.71,179.23,162.49Z" />
    <g id="potion-two">
      <path class="cls-2"
        d="M431.36,145.96c-6.64,20.64-24.76,34.62-45.86,37.94-1.95.31-3.97.16-5.87-.46l-44.08-14.18c-1.9-.61-3.63-1.67-5.04-3.05-15.21-14.99-21.78-36.92-15.14-57.56,3.27-10.18,9.33-18.73,17.16-25.19,3.04-2.5,7.34-3.19,11.27-1.93,0,0,11.99,8.24,24.34,7.83,12.36-.41,25.79,5.39,34.83,11.2,9.04,5.82,21.09,6.78,21.09,6.78,3.93,1.26,7.03,4.33,8.03,8.14,2.59,9.81,2.53,20.29-.74,30.47Z" />
      <g>
        <path class="cls-1"
          d="M417.87,91.88c-.65-1.26-2.19-1.76-3.45-1.11-1.26.65-1.76,2.19-1.11,3.45,5.25,10.24,6.83,21.3,4.58,31.97-4.29,20.34-21.25,37.15-42.2,41.82l-.92.21q-7.76,1.74-25.93-2.1l-2.94-.62c-21.69-4.58-22.15-4.92-29.81-10.7l-.17-.13c-5.19-3.91-9.57-8.71-13.01-14.25-.75-1.2-2.33-1.57-3.53-.83-1.2.75-1.57,2.32-.83,3.53,3.77,6.08,8.58,11.34,14.28,15.64l.17.13c8.4,6.33,9.57,6.92,31.84,11.62l2.94.62,2.4.51c16.54,3.49,17.25,3.48,25.71,1.58l.91-.2c22.87-5.1,41.39-23.49,46.1-45.76,2.5-11.84.76-24.07-5.03-35.37Z" />
        <path class="cls-1"
          d="M295.93,100.45c4.61-21.86,24.91-38.16,50.49-40.56,1.12-.1,2.03-.92,2.27-2.02l2.75-13.02c.29-1.38-.59-2.74-1.98-3.03l-.85-.18c-1.38-.29-2.27-1.65-1.98-3.03l.49-2.32c.29-1.38,1.65-2.27,3.03-1.98l12.03,2.54,20.78,4.39,12.03,2.54c1.38.29,2.27,1.65,1.98,3.03l-.49,2.32c-.29,1.38-1.65,2.27-3.03,1.98l-.85-.18-14.5-3.06c-1.38-.29-2.74.59-3.03,1.98s.59,2.74,1.98,3.03l12,2.53-2.22,10.51c-.23,1.1.28,2.22,1.26,2.76,5.17,2.89,9.88,6.4,14,10.43.36.35.8.58,1.26.67.83.17,1.73-.06,2.36-.71.99-1.01.97-2.63-.04-3.62-4-3.91-8.51-7.37-13.44-10.29l1.87-8.88c3.51-.05,6.65-2.52,7.4-6.1l.49-2.32c.87-4.14-1.79-8.23-5.93-9.1l-9.17-1.94,8.1-22.79c.74-2.09.55-4.39-.54-6.33-1.08-1.93-2.95-3.3-5.12-3.76l-17.9-3.78c-2.17-.46-4.43.04-6.2,1.37-1.77,1.33-2.88,3.36-3.05,5.57l-1.36,18.24c-.11,1.41.96,2.63,2.36,2.74,1.41.1,2.64-.95,2.74-2.36l1.36-18.24c.06-.75.42-1.41,1.02-1.86.6-.45,1.33-.61,2.07-.46l17.9,3.78c.73.15,1.34.6,1.7,1.25.37.65.43,1.4.18,2.11l-8.33,23.43-18.59-3.92-12.03-2.54c-4.14-.87-8.23,1.79-9.1,5.93l-.49,2.32c-.75,3.57,1.12,7.1,4.31,8.57l-1.87,8.88c-26.95,3.23-48.18,20.89-53.14,44.4-2.28,10.82-1.51,22.07,2.24,32.53.31.87,1.04,1.46,1.88,1.64.45.09.93.07,1.39-.1,1.33-.48,2.02-1.94,1.55-3.27-3.43-9.57-4.14-19.86-2.05-29.75Z" />
      </g>
      <path class="cls-1"
        d="M366.71,147.16l-2.47-2.1,2.1-2.47c.43-.5.37-1.25-.14-1.68-.5-.43-1.26-.37-1.68.14l-2.1,2.47-2.47-2.1c-.5-.43-1.25-.37-1.68.14-.43.5-.37,1.25.14,1.68l2.47,2.1-2.1,2.47c-.43.5-.37,1.25.14,1.68.16.13.34.22.53.26.41.09.86-.05,1.16-.39l2.1-2.47,2.47,2.1c.16.13.34.22.53.26.41.09.86-.05,1.16-.39.43-.5.37-1.25-.14-1.68Z" />
      <path class="cls-1"
        d="M328.99,98.07l-.35-3.22,3.22-.35c.65-.07,1.13-.66,1.06-1.31-.07-.66-.66-1.13-1.31-1.06l-3.22.35-.35-3.22c-.07-.66-.66-1.13-1.31-1.06-.65.07-1.13.66-1.06,1.31l.35,3.22-3.22.35c-.65.07-1.13.66-1.06,1.31.02.2.09.39.2.55.24.35.66.56,1.11.51l3.22-.35.35,3.22c.02.2.09.39.2.55.24.35.66.56,1.11.51.65-.07,1.13-.66,1.06-1.31Z" />
      <path class="cls-1"
        d="M394.12,116.37c-.07-.02-.15-.03-.22-.05-1.44-.36-2.64-1.26-3.4-2.53s-.98-2.76-.61-4.2c.36-1.44,1.26-2.64,2.53-3.4s2.77-.98,4.2-.62c1.44.36,2.64,1.26,3.4,2.53s.98,2.76.61,4.2c-.36,1.44-1.26,2.64-2.53,3.4-1.21.72-2.61.96-3.98.67ZM395.88,108.02c-.74-.16-1.49-.03-2.14.36-.68.41-1.17,1.06-1.36,1.83s-.08,1.57.33,2.26c.41.68,1.06,1.17,1.83,1.36.78.19,1.58.08,2.26-.33.68-.41,1.17-1.06,1.36-1.83s.08-1.57-.33-2.26c-.41-.68-1.06-1.17-1.83-1.36-.04,0-.08-.02-.12-.03Z" />
      <path class="cls-1"
        d="M323.23,139.39c-.07-.02-.15-.03-.22-.05-1.44-.36-2.64-1.26-3.4-2.53-.76-1.27-.98-2.76-.62-4.2.36-1.44,1.26-2.64,2.53-3.4s2.77-.98,4.2-.61c1.44.36,2.64,1.26,3.4,2.53.76,1.27.98,2.76.62,4.2-.36,1.44-1.26,2.64-2.53,3.4-1.21.72-2.61.96-3.98.67ZM324.98,131.04c-.74-.16-1.49-.03-2.14.36-.68.41-1.17,1.06-1.36,1.83-.2.77-.08,1.58.33,2.26.41.68,1.06,1.17,1.83,1.36h0c.77.2,1.58.08,2.26-.33.68-.41,1.17-1.06,1.36-1.83s.08-1.57-.33-2.26c-.41-.68-1.06-1.17-1.83-1.36-.04,0-.08-.02-.12-.03Z" />
      <path class="cls-1"
        d="M352.86,116.8c-.07-.02-.15-.03-.22-.05-1.44-.36-2.64-1.26-3.4-2.53-.76-1.27-.98-2.76-.61-4.2.36-1.44,1.26-2.64,2.53-3.4,1.27-.76,2.77-.99,4.2-.61,1.44.36,2.64,1.26,3.4,2.53.76,1.27.98,2.76.61,4.2-.36,1.44-1.26,2.64-2.53,3.4-1.21.72-2.61.95-3.98.66ZM354.61,108.45c-.74-.16-1.49-.03-2.14.36-.68.41-1.17,1.06-1.36,1.83s-.08,1.58.33,2.26c.41.68,1.06,1.17,1.83,1.36.78.19,1.58.08,2.26-.33.68-.41,1.17-1.06,1.36-1.83s.08-1.58-.33-2.26c-.41-.68-1.06-1.17-1.83-1.36-.04,0-.08-.02-.12-.03Z" />
      <path class="cls-1"
        d="M362.63,86.24c-.07-.02-.15-.03-.22-.05-1.44-.36-2.64-1.26-3.4-2.53-.76-1.27-.98-2.76-.62-4.2.36-1.44,1.26-2.64,2.53-3.4s2.77-.98,4.2-.62c1.44.36,2.64,1.26,3.4,2.53s.98,2.76.61,4.2c-.36,1.44-1.26,2.64-2.53,3.4-1.21.72-2.61.95-3.98.66ZM364.38,77.9c-.74-.16-1.49-.03-2.14.36-.68.41-1.17,1.06-1.36,1.83s-.08,1.57.33,2.26c.41.68,1.06,1.17,1.83,1.36.77.19,1.58.08,2.26-.33.68-.41,1.17-1.06,1.36-1.83s.08-1.58-.33-2.26c-.41-.68-1.06-1.17-1.83-1.36-.04,0-.08-.02-.12-.03Z" />
    </g>
    <g id="potion-one">
      <path class="cls-2"
        d="M134.8,233.36l-22.5,7.65c-4.36,1.48-8.85-.3-9.84-3.92l-21.36-77.97c-.46-1.69.77-3.55,2.81-4.25,0,0,4.06-2.28,10.14-3.45,6.08-1.17,10.72-3.65,10.72-3.65,2.03-.69,4.15.04,4.82,1.65l30.62,74.82c1.42,3.47-1.05,7.62-5.41,9.1Z" />
      <path class="cls-1"
        d="M115.23,202.25l-3.01-1.18,1.18-3.01c.24-.61-.06-1.31-.67-1.55-.61-.24-1.31.06-1.55.67l-1.18,3.01-3.01-1.18c-.61-.24-1.31.06-1.55.67-.24.61.06,1.31.67,1.55l3.01,1.18-1.18,3.01c-.24.61.06,1.31.67,1.55.19.08.39.1.58.07.42-.05.8-.33.97-.75l1.18-3.01,3.01,1.18c.19.08.39.1.58.07.42-.05.8-.33.97-.75.24-.61-.06-1.31-.67-1.55Z" />
      <path class="cls-1"
        d="M122.58,182.09c-.07,0-.15.02-.22.02-1.48.12-2.91-.34-4.04-1.29s-1.82-2.3-1.94-3.77c-.12-1.48.34-2.91,1.29-4.04.96-1.13,2.3-1.83,3.77-1.94,1.48-.12,2.91.34,4.04,1.29s1.82,2.3,1.94,3.77c.12,1.48-.34,2.91-1.29,4.04-.91,1.07-2.16,1.75-3.55,1.92ZM121.53,173.62c-.75.09-1.42.46-1.91,1.03-.51.61-.76,1.38-.7,2.18.07.79.44,1.51,1.05,2.03.61.51,1.38.76,2.18.7,1.66-.15,2.86-1.58,2.73-3.22-.07-.79-.44-1.51-1.05-2.03-.61-.51-1.38-.76-2.18-.7-.04,0-.08,0-.12.01Z" />
      <path class="cls-1"
        d="M135.36,225.55c-.07,0-.15.02-.22.02-1.48.12-2.91-.34-4.04-1.29-1.13-.96-1.82-2.3-1.94-3.77-.12-1.48.34-2.91,1.29-4.04.96-1.13,2.29-1.85,3.77-1.94,3.05-.25,5.73,2.02,5.99,5.06.12,1.48-.34,2.91-1.29,4.04-.91,1.07-2.16,1.75-3.55,1.92ZM134.31,217.09c-.75.09-1.42.46-1.91,1.03-.51.61-.76,1.38-.7,2.17s.44,1.52,1.05,2.03c.61.51,1.38.76,2.17.7h0c.82-.08,1.51-.44,2.03-1.05.51-.61.76-1.38.7-2.18-.14-1.64-1.58-2.86-3.22-2.72-.04,0-.08,0-.12.01Z" />
      <g>
        <path class="cls-1"
          d="M147.23,135.05l-.68-5.51c-.52-4.2-4.36-7.2-8.56-6.68l-10.83,1.33-23.95,2.95-4.28-15.21c-.21-.73-.09-1.48.33-2.11.42-.63,1.07-1.03,1.82-1.12l21.48-2.65c.75-.09,1.48.14,2.04.65.56.51.86,1.21.84,1.97l-.32,11.02c-.04,1.41,1.07,2.59,2.48,2.63,1.42.05,2.59-1.07,2.63-2.49l.32-11.02c.07-2.24-.85-4.39-2.51-5.9s-3.89-2.22-6.11-1.94l-21.48,2.65c-2.23.27-4.21,1.5-5.46,3.37s-1.61,4.18-1,6.33l4.07,14.46-7.87.97c-4.2.52-7.2,4.36-6.68,8.56l.68,5.51c.52,4.2,4.36,7.2,8.56,6.68l.7-.09,3.22,88.7c.1,2.86,1.41,5.57,3.59,7.42s5.06,2.72,7.9,2.37l41.33-5.09c2.84-.35,5.42-1.89,7.09-4.22s2.27-5.27,1.68-8.07l-7.44-35.1c-.29-1.38-1.67-2.3-3.04-1.97-1.38.29-2.27,1.65-1.97,3.04l7.44,35.1c.3,1.42,0,2.85-.84,4.04-.84,1.18-2.1,1.93-3.54,2.11l-41.33,5.09c-1.44.18-2.84-.24-3.95-1.19-1.1-.94-1.74-2.26-1.8-3.71l-3.32-91.49c-.03-.72-.35-1.39-.9-1.86-.55-.47-1.26-.68-1.97-.59l-3.47.43c-1.4.17-2.68-.83-2.85-2.23l-.68-5.51c-.17-1.4.83-2.68,2.23-2.85l10.83-1.33,26.13-3.22,10.83-1.33c1.4-.17,2.68.83,2.85,2.23l.68,5.51c.17,1.4-.83,2.68-2.23,2.85l-3.47.43-13.06,1.61c-1.4.17-2.4,1.45-2.23,2.85s1.45,2.4,2.85,2.23l10.73-1.32,8.38,39.52c.28,1.31,1.51,2.17,2.82,2.01.07,0,.15-.02.22-.04,1.38-.29,2.27-1.65,1.97-3.04l-8.29-39.08.7-.09c4.2-.52,7.2-4.36,6.68-8.56Z" />
        <path class="cls-1"
          d="M105.72,142.74c-1.4.17-2.4,1.45-2.23,2.85s1.45,2.4,2.85,2.23l5.11-.63c1.4-.17,2.4-1.45,2.23-2.85s-1.45-2.4-2.85-2.23l-5.11.63Z" />
      </g>
    </g>
    <g id="potion-three">
      <path class="cls-2"
        d="M332.2,335.88l-76.44,3.64c-3.15.15-5.48-2.91-4.49-5.9l24.16-73.43c.9-2.73,3.38-4.62,6.25-4.75,0,0,5.86-1.48,8.12-.39s8.62-.41,8.62-.41c2.87-.14,5.52,1.51,6.67,4.14l31.03,70.8c1.28,2.89-.75,6.15-3.91,6.31Z" />
      <g>
        <path class="cls-1"
          d="M287.62,261.84c-1.22.71-1.65,2.27-.94,3.5l3.27,5.67c.54.95,1.6,1.41,2.62,1.25.3-.05.6-.15.88-.31,1.22-.71,1.65-2.27.94-3.5l-3.27-5.67c-.71-1.23-2.27-1.65-3.5-.94Z" />
        <path class="cls-1"
          d="M335.37,339.64l-37.31-64.79c-.71-1.23-2.27-1.65-3.5-.94-1.22.71-1.65,2.27-.94,3.5l37.31,64.79c.43.74.46,1.61.09,2.38-.37.77-1.06,1.29-1.91,1.42l-85.85,13.58c-.85.13-1.67-.14-2.26-.77s-.83-1.46-.65-2.29l2.88-13.6c.29-1.38-.59-2.74-1.98-3.04-1.38-.29-2.74.59-3.04,1.98l-2.88,13.6c-.52,2.48.2,5.05,1.95,6.88,1.74,1.83,4.27,2.69,6.77,2.3l85.85-13.58c2.5-.4,4.64-1.99,5.73-4.28s.99-4.95-.27-7.15Z" />
        <path class="cls-1"
          d="M242.53,333.95c.32.07.63.07.93.02,1.02-.16,1.88-.93,2.11-2l15.79-74.59,4.63-.73c1.4-.22,2.35-1.53,2.13-2.93s-1.53-2.35-2.93-2.13l-6.37,1.01-9.22,1.46c-1.39.22-2.71-.73-2.93-2.13l-.29-1.83c-.22-1.39.73-2.71,2.13-2.93l9.44-1.49,22.07-3.49.21-.03,9.22-1.46c1.39-.22,2.71.73,2.93,2.13l.29,1.83c.22,1.39-.73,2.71-2.13,2.93l-9.22,1.46c-.83.13-1.55.67-1.91,1.43s-.33,1.65.09,2.38l3.11,5.41c.54.95,1.6,1.41,2.62,1.25.3-.05.6-.15.88-.31,1.22-.71,1.65-2.27.94-3.5l-1.26-2.18,5.55-.88c4.18-.66,7.05-4.6,6.39-8.79l-.29-1.83c-.66-4.18-4.6-7.05-8.79-6.39l-6.64,1.05-.82-15.01c-.1-1.8-.96-3.49-2.37-4.63-1.41-1.14-3.24-1.63-5.02-1.34l-18.12,2.87c-1.79.28-3.38,1.31-4.36,2.83-.99,1.52-1.29,3.39-.82,5.13l2.73,10.3c.36,1.36,1.75,2.19,3.13,1.82,1.37-.36,2.18-1.76,1.82-3.13l-2.73-10.3c-.13-.48.05-.85.17-1.03s.38-.49.87-.57l18.12-2.87c.49-.08.84.14,1,.27s.45.43.47.93l.85,15.54-19.78,3.13-9.44,1.49c-4.18.66-7.05,4.6-6.39,8.79l.29,1.83c.66,4.18,4.6,7.05,8.79,6.39l5.55-.88-15.38,72.68c-.29,1.38.59,2.74,1.98,3.04Z" />
      </g>
      <path class="cls-1"
        d="M298.96,304.41l-3.05-1.08,1.08-3.05c.22-.62-.11-1.3-.73-1.52-.62-.22-1.3.11-1.52.73l-1.08,3.05-3.05-1.08c-.62-.22-1.3.11-1.52.73-.22.62.11,1.3.73,1.52l3.05,1.08-1.08,3.05c-.22.62.11,1.3.73,1.52.19.07.39.08.58.05.42-.07.79-.35.94-.78l1.08-3.05,3.05,1.08c.19.07.39.08.58.05.42-.07.79-.35.94-.78.22-.62-.11-1.3-.73-1.52Z" />
      <path class="cls-1"
        d="M273.78,292.68c-.07.01-.15.02-.22.03h0c-3.04.36-5.8-1.82-6.16-4.85-.17-1.47.24-2.92,1.15-4.08.92-1.16,2.23-1.92,3.7-2.07,1.47-.17,2.92.24,4.08,1.15,1.16.92,1.9,2.23,2.07,3.7.17,1.47-.24,2.92-1.15,4.08-.87,1.1-2.1,1.82-3.48,2.04ZM273.26,290.17c.79-.1,1.5-.49,1.99-1.12.49-.63.71-1.41.62-2.2s-.49-1.5-1.12-1.99c-.63-.49-1.41-.71-2.2-.62-.78.12-1.5.49-1.99,1.12-.49.63-.71,1.41-.62,2.2.19,1.63,1.68,2.81,3.31,2.61h0Z" />
      <path class="cls-1"
        d="M268.41,333.05c-.07.01-.14.02-.22.03-1.47.17-2.92-.24-4.08-1.15s-1.9-2.23-2.07-3.7c-.17-1.47.24-2.92,1.15-4.08.92-1.16,2.24-1.9,3.7-2.07,1.47-.17,2.92.24,4.08,1.15,1.16.92,1.9,2.23,2.07,3.7.35,2.96-1.72,5.66-4.64,6.13ZM267.07,324.62c-.74.12-1.4.5-1.87,1.1-.49.63-.71,1.41-.62,2.2s.49,1.5,1.12,1.99c.63.49,1.41.71,2.2.62,1.69-.18,2.81-1.68,2.61-3.31-.09-.79-.49-1.5-1.12-1.99-.63-.49-1.41-.71-2.2-.62-.04,0-.08.01-.12.02Z" />
      <path class="cls-1"
        d="M295.01,340.54c-.07.01-.15.02-.22.03-1.47.17-2.92-.24-4.08-1.15-1.16-.92-1.9-2.23-2.07-3.7-.17-1.47.24-2.92,1.15-4.08.92-1.16,2.24-1.93,3.7-2.07,1.47-.17,2.92.24,4.08,1.15,1.16.92,1.9,2.23,2.07,3.7.17,1.47-.24,2.92-1.15,4.08-.87,1.1-2.1,1.82-3.48,2.04ZM293.67,332.12c-.74.12-1.4.5-1.87,1.1-.49.62-.71,1.41-.62,2.2s.49,1.5,1.12,1.99c.62.49,1.41.71,2.2.62.79-.1,1.5-.49,1.99-1.12.49-.62.71-1.41.62-2.2s-.49-1.5-1.12-1.99c-.62-.49-1.41-.71-2.2-.62-.04,0-.08.01-.12.02Z" />
    </g>
    <path class="cls-1"
      d="M157.74,91.09l-3.37-1.83,1.83-3.37c.37-.69.12-1.54-.57-1.92-.69-.37-1.54-.12-1.92.57l-1.83,3.37-3.37-1.83c-.69-.37-1.54-.12-1.92.57-.37.69-.12,1.54.57,1.92l3.37,1.83-1.83,3.37c-.37.69-.12,1.54.57,1.92.21.12.44.17.67.17.5,0,.99-.27,1.24-.74l1.83-3.37,3.37,1.83c.21.12.44.17.67.17.5,0,.99-.27,1.24-.74.37-.69.12-1.54-.57-1.92Z" />
    <path class="cls-1"
      d="M468.79,121.21l-3.37-1.83,1.83-3.37c.37-.69.12-1.54-.57-1.92-.69-.37-1.54-.12-1.92.57l-1.83,3.37-3.37-1.83c-.69-.37-1.54-.12-1.92.57-.37.69-.12,1.54.57,1.92l3.37,1.83-1.83,3.37c-.37.69-.12,1.54.57,1.92.21.12.44.17.67.17.5,0,.99-.27,1.24-.74l1.83-3.37,3.37,1.83c.21.12.44.17.67.17.5,0,.99-.27,1.24-.74.37-.69.12-1.54-.57-1.92Z" />
    <path class="cls-1"
      d="M327.36,212.17c-.07,0-.15,0-.22,0-1.47-.06-2.83-.69-3.83-1.77-1-1.08-1.52-2.49-1.46-3.96.06-1.47.69-2.83,1.77-3.83,1.08-1,2.49-1.53,3.96-1.46,3.04.12,5.41,2.69,5.29,5.73-.06,1.47-.69,2.83-1.77,3.83-1.03.95-2.35,1.47-3.74,1.47ZM327.35,203.68c-.75,0-1.46.28-2.01.79-.58.54-.92,1.27-.95,2.06s.25,1.55.79,2.13c.54.58,1.27.92,2.06.95.79.03,1.55-.25,2.13-.79.58-.54.92-1.27.95-2.06.06-1.64-1.21-3.02-2.85-3.08-.04,0-.08,0-.12,0Z" />
    <path class="cls-1"
      d="M324.39,19.29c-.07,0-.15,0-.22,0-1.47-.06-2.83-.69-3.83-1.77-1-1.08-1.52-2.49-1.46-3.96.06-1.47.69-2.83,1.77-3.83,1.08-1,2.49-1.53,3.96-1.46,3.04.12,5.41,2.69,5.29,5.73-.06,1.47-.69,2.83-1.77,3.83-1.03.95-2.35,1.47-3.74,1.47ZM324.38,10.81c-.75,0-1.46.28-2.01.79-.58.54-.92,1.27-.95,2.06s.25,1.55.79,2.13c.54.58,1.27.92,2.06.95.79.03,1.55-.25,2.13-.79.58-.54.92-1.27.95-2.06.06-1.64-1.21-3.02-2.85-3.08-.04,0-.08,0-.12,0Z" />
    <path class="cls-1"
      d="M201.48,309.57l-2.34-1.27.67-.2c.53-.16.83-.71.67-1.24-.16-.53-.71-.83-1.24-.67l-.67.2,1.27-2.34c.4-.73.12-1.64-.6-2.03-.73-.39-1.64-.12-2.03.6l-1.94,3.58-3.58-1.94c-.73-.39-1.64-.12-2.03.6-.4.73-.12,1.64.6,2.03l2.34,1.27-.67.2c-.53.16-.83.71-.67,1.24.13.43.53.72.96.72.09,0,.19-.01.28-.04l.67-.2-1.27,2.34c-.4.73-.12,1.64.6,2.03.23.12.47.18.71.18.53,0,1.05-.28,1.32-.79l1.94-3.58,3.58,1.94c.23.12.47.18.71.18.53,0,1.05-.28,1.32-.79.4-.73.12-1.64-.6-2.03Z" />
  </g>
</svg>